<svg xmlns="http://www.w3.org/2000/svg" width="998.281" height="170" viewBox="0 0 998.281 170"><g transform="translate(-99 -249)"><rect width="998.281" height="170" rx="32" transform="translate(99 249)"/><g transform="translate(792.807 416.917)"><g transform="translate(15.193 -107.917)"><path d="M82.521-38.951a9.9,9.9,0,0,1-1.01.881H72.459c.573-.38,1.146-.792,1.692-1.227h8.7A3.5,3.5,0,0,1,82.521-38.951Zm1.2-1.46H75.461c.219-.2.441-.416.656-.631s.388-.394.573-.6h7.738a9.842,9.842,0,0,1-.7,1.227Zm-4.1,3.465a9.744,9.744,0,0,1-4.048.871,9.744,9.744,0,0,1-4.05-.871h8.1Zm5.256-5.812H77.662c.325-.4.641-.807.937-1.227h6.612a9.778,9.778,0,0,1-.325,1.227Zm.481-2.344H79.347c.251-.4.492-.811.716-1.227h5.324c.007.143.009.287.01.43,0,.264-.011.53-.032.791Zm-.083-2.341h-4.64c.189-.4.371-.812.539-1.227h3.825a9.8,9.8,0,0,1,.277,1.228ZM84.6-49.79h-3c.143-.4.268-.814.385-1.227h1.969a9.829,9.829,0,0,1,.639,1.225Zm-1.433-2.349h-.891c.059-.258.116-.522.166-.785a9.916,9.916,0,0,1,.716.785Z" transform="translate(-38.011 85.643)" fill="#fff"/><path d="M52.461-59.988a22,22,0,0,1-3.429,2.8,21.853,21.853,0,0,1-24.015,0,22.051,22.051,0,0,1-6.231-6.228,21.857,21.857,0,0,1,0-24.012,22.021,22.021,0,0,1,6.941-6.679A21.76,21.76,0,0,1,35.3-97.184a21.98,21.98,0,0,1,5,.181,13.812,13.812,0,0,0,2.771,15.522A13.813,13.813,0,0,0,58.6-78.71,21.807,21.807,0,0,1,52.461-59.988Z" transform="translate(-15.193 103.596)" fill="#fff"/><path d="M74.266-84.122l7.165-7.165a12.332,12.332,0,0,1-7.165,7.165Zm-2.654.671a12.371,12.371,0,0,1-2.273.1L82.207-96.218a12.37,12.37,0,0,1-.1,2.273Zm-4.04-.112a12.285,12.285,0,0,1-1.708-.464L81.532-99.695A12.273,12.273,0,0,1,82-97.987Zm-3.105-1.048a12.182,12.182,0,0,1-1.376-.8l17.052-17.052a12.206,12.206,0,0,1,.8,1.376Zm-2.5-1.654q-.374-.318-.728-.672-.195-.195-.378-.394L78.227-104.7q.2.183.394.377.354.354.672.728Zm-2-2.157a12.217,12.217,0,0,1-.84-1.331l16.674-16.673a12.224,12.224,0,0,1,1.331.84ZM58.5-91.1a12.255,12.255,0,0,1-.522-1.649L72.8-107.577a12.242,12.242,0,0,1,1.651.52Zm-.8-3.349A12.361,12.361,0,0,1,57.68-96.6l11.278-11.278a12.4,12.4,0,0,1,2.149.017Zm.42-4.573a12.324,12.324,0,0,1,8.417-8.417Z" transform="translate(-32.382 107.917)" fill="#fff"/></g><g transform="translate(77.472 -98.425)"><path d="M175.137-76.05V-65.16a2.088,2.088,0,0,0,.532,1.6,2.614,2.614,0,0,0,1.793.493h2.562v4.65h-3.468q-6.977,0-6.976-6.779V-76.055h-2.6v-4.533h2.6V-85.65h5.557v5.067h4.888v4.533Z" transform="translate(-138.944 89.404)" fill="#fff"/><path d="M307.275-54.968h5.518V-77.133h-5.518Z" transform="translate(-195.765 85.956)" fill="#fff"/><path d="M204.652-77.171a11.1,11.1,0,0,1,11.094,11.094,11.1,11.1,0,0,1-11.094,11.094,11.1,11.1,0,0,1-11.094-11.094,11.1,11.1,0,0,1,11.094-11.094Zm0,5.071a6.019,6.019,0,0,1,6.019,6.019,6.019,6.019,0,0,1-6.019,6.019,6.026,6.026,0,0,1-6.018-6.019A6.026,6.026,0,0,1,204.652-72.1Z" transform="translate(-149.707 85.971)" fill="#fff" fill-rule="evenodd"/><path d="M374.342-77.171a11.1,11.1,0,0,1,11.094,11.094,11.1,11.1,0,0,1-11.094,11.094,11.1,11.1,0,0,1-11.094-11.094A11.1,11.1,0,0,1,374.342-77.171Zm0,5.071a6.026,6.026,0,0,1,6.018,6.019,6.026,6.026,0,0,1-6.018,6.019,6.019,6.019,0,0,1-6.019-6.019,6.019,6.019,0,0,1,6.019-6.019Z" transform="translate(-218.434 85.971)" fill="#fff" fill-rule="evenodd"/><path d="M344.179-61.306a11.1,11.1,0,0,1-10.018,6.322,11.1,11.1,0,0,1-11.094-11.094,11.1,11.1,0,0,1,11.094-11.094,11.1,11.1,0,0,1,9.888,6.072l-4.941,1.6a6.019,6.019,0,0,0-4.952-2.6,6.019,6.019,0,0,0-6.019,6.019,6.019,6.019,0,0,0,6.018,6.018,6.019,6.019,0,0,0,5.077-2.783Z" transform="translate(-202.158 85.97)" fill="#fff" fill-rule="evenodd"/><path d="M309.665-91.961a3.385,3.385,0,0,1,3.379,3.383,3.385,3.385,0,0,1-3.382,3.383,3.385,3.385,0,0,1-3.382-3.383,3.385,3.385,0,0,1,3.385-3.383Z" transform="translate(-195.363 91.961)" fill="#fff" fill-rule="evenodd"/><path d="M243.395-77.133h-5.149v20.381a1.786,1.786,0,0,0,1.785,1.785h1.576a1.786,1.786,0,0,0,1.785-1.785Z" transform="translate(-167.808 85.956)" fill="#fff" fill-rule="evenodd"/><path d="M256.139-73.758q-.221-.251-.459-.49a10.211,10.211,0,0,0-7.221-2.991h0a10.212,10.212,0,0,0-7.221,2.991,10.213,10.213,0,0,0-2.992,7.22V-54.99H243.4V-67.314a5.106,5.106,0,0,1,5.1-5.11h0a5.106,5.106,0,0,1,5.106,5.106v12.324h5.147V-67.318a5.106,5.106,0,0,1,5.106-5.106h0a5.106,5.106,0,0,1,5.106,5.106v12.324h5.066V-67.032a10.212,10.212,0,0,0-2.991-7.221,10.213,10.213,0,0,0-7.22-2.99h0a10.213,10.213,0,0,0-7.221,2.991Q256.36-74.01,256.139-73.758Z" transform="translate(-167.807 85.999)" fill="#fff" fill-rule="evenodd"/><path d="M138.222-63.6H127.391L125.6-58.418h-5.732l9.779-27.227H136l9.779,27.227h-5.766Zm-1.48-4.363L132.812-79.34l-3.935,11.376Z" transform="translate(-119.866 89.407)" fill="#fff"/></g></g><path d="M3.8,0V-32.2H16.261a13.482,13.482,0,0,1,7.866,2.059,6.967,6.967,0,0,1,2.944,6.106,6.173,6.173,0,0,1-.6,2.714,7.328,7.328,0,0,1-1.622,2.2A8.48,8.48,0,0,1,22.563-17.6a8.763,8.763,0,0,1,4.2,3.059,8.252,8.252,0,0,1,1.6,5.083,8.666,8.666,0,0,1-1.437,4.991,9.388,9.388,0,0,1-4.083,3.289A15.4,15.4,0,0,1,16.56,0Zm7.636-5.635h4.025a5.808,5.808,0,0,0,3.726-1.012,3.686,3.686,0,0,0,1.242-3.036,3.837,3.837,0,0,0-1.184-3,5.117,5.117,0,0,0-3.531-1.07H11.431Zm0-13.363h3.8a5.659,5.659,0,0,0,2.38-.46,3.458,3.458,0,0,0,1.541-1.334,3.9,3.9,0,0,0,.541-2.093A3.331,3.331,0,0,0,18.5-25.622a5.245,5.245,0,0,0-3.393-.966h-3.68ZM40.664,0V-13.455L29.371-32.2H37.95l6.693,11.431L51.267-32.2h8.349L48.323-13.386V0Z" transform="translate(732 353.7)" fill="none" stroke="#fff" stroke-width="1" opacity="0.4"/><g transform="translate(-236 -49)"><path d="M12.8,0h0a0,0,0,0,1,0,0V27.2A12.8,12.8,0,0,1,0,40H0a0,0,0,0,1,0,0V12.8A12.8,12.8,0,0,1,12.8,0Z" transform="translate(395 363)" fill="#fff"/><path d="M8,0A8,8,0,1,1,0,8,8,8,0,0,1,8,0Z" transform="translate(409.8 375)" fill="#fff"/><path d="M8.191,8H7.809A7.818,7.818,0,0,1,0,.191C0,.127,0,.063,0,0H16V.049c0,.047,0,.094,0,.141A7.818,7.818,0,0,1,8.191,8Z" transform="translate(409.8 363)" fill="#fff"/><path d="M14.11-31.2a11.636,11.636,0,0,1-5.9-1.47A10.806,10.806,0,0,1,4.2-36.6,10.441,10.441,0,0,1,2.75-42a10.337,10.337,0,0,1,.83-4.09,10.8,10.8,0,0,1,2.35-3.46,11.154,11.154,0,0,1,3.6-2.38,11.754,11.754,0,0,1,4.58-.87,11.636,11.636,0,0,1,5.9,1.47,10.73,10.73,0,0,1,4,3.93A10.5,10.5,0,0,1,25.45-42a10.446,10.446,0,0,1-.82,4.09,10.548,10.548,0,0,1-2.34,3.45,11.374,11.374,0,0,1-3.6,2.38A11.637,11.637,0,0,1,14.11-31.2Zm0-5.64a5.05,5.05,0,0,0,2.52-.63,4.5,4.5,0,0,0,1.76-1.79A5.586,5.586,0,0,0,19.03-42a5.644,5.644,0,0,0-.63-2.75,4.453,4.453,0,0,0-1.75-1.78,5.09,5.09,0,0,0-2.54-.63,5.09,5.09,0,0,0-2.54.63,4.52,4.52,0,0,0-1.76,1.78A5.572,5.572,0,0,0,9.17-42a5.516,5.516,0,0,0,.65,2.74,4.571,4.571,0,0,0,1.77,1.79A5.05,5.05,0,0,0,14.11-36.84ZM29.29-31.8V-52.2h6.56v2.38a5.546,5.546,0,0,1,2.44-2.3,7.61,7.61,0,0,1,3.3-.72,8.385,8.385,0,0,1,1.22.08q.54.08,1.06.18l-.78,6.74a10.334,10.334,0,0,0-1.44-.39,7.833,7.833,0,0,0-1.52-.15,4.463,4.463,0,0,0-3.07,1.07,3.958,3.958,0,0,0-1.21,3.13V-31.8Zm17.74,0V-52.2h6.56v2.52a7.029,7.029,0,0,1,1.74-1.73,7.759,7.759,0,0,1,2.14-1.04,7.8,7.8,0,0,1,2.3-.35,7.2,7.2,0,0,1,3.87,1.01,5.144,5.144,0,0,1,2.23,2.71,7.074,7.074,0,0,1,3.22-2.83,10.546,10.546,0,0,1,4.3-.89,8.336,8.336,0,0,1,4.66,1.13,6.2,6.2,0,0,1,2.41,2.92,10.184,10.184,0,0,1,.71,3.79V-31.8H74.61V-43.08a4.031,4.031,0,0,0-.9-2.75,3.292,3.292,0,0,0-2.62-1.03,3.932,3.932,0,0,0-1.92.46,3.428,3.428,0,0,0-1.31,1.23,3.254,3.254,0,0,0-.47,1.73V-31.8H60.83V-43.08a4,4,0,0,0-.91-2.75,3.3,3.3,0,0,0-2.61-1.03,3.974,3.974,0,0,0-1.94.46,3.428,3.428,0,0,0-1.31,1.23,3.254,3.254,0,0,0-.47,1.73V-31.8Zm47.86.6a9.934,9.934,0,0,1-5.16-1.35,9.64,9.64,0,0,1-3.6-3.78A11.7,11.7,0,0,1,84.81-42a12.33,12.33,0,0,1,.76-4.43,10.043,10.043,0,0,1,2.12-3.41,9.411,9.411,0,0,1,3.2-2.19,10.258,10.258,0,0,1,4-.77,9.066,9.066,0,0,1,4.84,1.23,6.954,6.954,0,0,1,2.86,3.27l-.9,1.42V-52.2h5.64v20.4h-5.64v-5.32l.9,1.4a7.008,7.008,0,0,1-2.86,3.28A9.009,9.009,0,0,1,94.89-31.2Zm1.12-5.64a4.806,4.806,0,0,0,2.45-.63,4.564,4.564,0,0,0,1.73-1.79,5.586,5.586,0,0,0,.64-2.74,5.572,5.572,0,0,0-.64-2.75,4.582,4.582,0,0,0-1.73-1.78,4.806,4.806,0,0,0-2.45-.63,4.752,4.752,0,0,0-2.44.63,4.6,4.6,0,0,0-1.72,1.78A5.572,5.572,0,0,0,91.21-42a5.586,5.586,0,0,0,.64,2.74,4.586,4.586,0,0,0,1.72,1.79A4.752,4.752,0,0,0,96.01-36.84Zm24.42,5.6a18.132,18.132,0,0,1-5.19-.7,12.683,12.683,0,0,1-4.05-1.98l2.04-4.5a15.243,15.243,0,0,0,3.56,1.67,11.787,11.787,0,0,0,3.6.61,5.248,5.248,0,0,0,2.38-.43,1.353,1.353,0,0,0,.82-1.25,1.116,1.116,0,0,0-.75-1.06,14.839,14.839,0,0,0-2.93-.74,12.692,12.692,0,0,1-6.03-2.31,5.461,5.461,0,0,1-1.91-4.41,5.759,5.759,0,0,1,1.1-3.5,7.148,7.148,0,0,1,3.05-2.33,11.38,11.38,0,0,1,4.49-.83,16.308,16.308,0,0,1,4.69.66,12.019,12.019,0,0,1,3.79,1.84L127.11-46a9.71,9.71,0,0,0-1.89-1.1,11.793,11.793,0,0,0-2.21-.74,9.969,9.969,0,0,0-2.22-.26,4.919,4.919,0,0,0-2.17.41,1.252,1.252,0,0,0-.83,1.13,1.167,1.167,0,0,0,.72,1.1,14.241,14.241,0,0,0,2.88.82q4.36.88,6.18,2.37a5.089,5.089,0,0,1,1.82,4.17,5.953,5.953,0,0,1-1.13,3.62,7.322,7.322,0,0,1-3.14,2.39A11.97,11.97,0,0,1,120.43-31.24Z" transform="translate(424.95 434)" fill="#fff"/></g></g></svg>