<svg width="280" height="73" viewBox="0 0 280 73" fill="none" xmlns="http://www.w3.org/2000/svg">
<g clip-path="url(#clip0_427_442)">
<path d="M0 24.8998C0 18.959 2.34438 13.2615 6.5174 9.06074C10.6904 4.85997 16.3502 2.5 22.2518 2.5V50.0995C22.2518 56.0403 19.9074 61.7378 15.7344 65.9386C11.5614 70.1393 5.90154 72.4993 0 72.4993V24.8998ZM25.7286 37.4996C25.7286 34.7307 26.5443 32.024 28.0724 29.7217C29.6006 27.4195 31.7726 25.6251 34.3139 24.5655C36.8551 23.5058 39.6514 23.2286 42.3492 23.7688C45.047 24.309 47.525 25.6423 49.47 27.6003C51.415 29.5582 52.7395 32.0527 53.2761 34.7684C53.8128 37.4841 53.5373 40.299 52.4847 42.8572C51.4321 45.4153 49.6496 47.6018 47.3625 49.1401C45.0755 50.6784 42.3866 51.4995 39.636 51.4995C35.9475 51.4995 32.4101 50.0245 29.802 47.399C27.1939 44.7736 25.7286 41.2126 25.7286 37.4996ZM39.3057 16.4999C35.7051 16.4999 32.2519 15.0601 29.7058 12.4973C27.1596 9.93445 25.729 6.45846 25.7286 2.8339C25.7286 2.724 25.7286 2.612 25.7328 2.5007H53.5399C53.5399 2.6274 53.5434 2.7366 53.5434 2.8339C53.543 6.45834 52.1125 9.93422 49.5665 12.497C47.0205 15.0598 43.5675 16.4997 39.967 16.4999H39.3057Z" fill="black"/>
<path d="M76.5949 72.1493C73.0099 72.2221 69.4702 71.3343 66.3382 69.5769C63.4531 67.9427 61.0483 65.5701 59.3671 62.6994C57.689 59.8387 56.8175 56.5716 56.8464 53.2495C56.839 50.7898 57.3299 48.3543 58.2893 46.0921C59.2459 43.825 60.6337 41.7681 62.3746 40.0371C64.1714 38.2519 66.2973 36.8371 68.6329 35.8722C71.1593 34.8347 73.8665 34.317 76.5949 34.3497C80.1798 34.2769 83.7196 35.1647 86.8515 36.9222C89.7341 38.5536 92.1339 40.9272 93.8052 43.7996C95.4727 46.664 96.3378 49.9297 96.3086 53.2495C96.3162 55.7075 95.8314 58.1419 94.8831 60.4069C93.9396 62.6718 92.5566 64.7243 90.8151 66.4444C89.0122 68.222 86.8879 69.6358 84.5568 70.6093C82.0333 71.6582 79.3249 72.1821 76.5949 72.1493ZM76.5949 62.2794C78.1257 62.3027 79.6359 61.9227 80.9757 61.1769C82.2699 60.4459 83.331 59.3595 84.0353 58.0445C84.8066 56.5679 85.1896 54.9172 85.1479 53.2495C85.1934 51.5779 84.8166 49.922 84.0527 48.4371C83.3544 47.128 82.2988 46.0472 81.0105 45.3221C79.6592 44.5735 78.137 44.1935 76.5949 44.2196C75.0527 44.1935 73.5305 44.5735 72.1793 45.3221C70.8884 46.0498 69.8279 47.1295 69.1197 48.4371C68.3445 49.9184 67.9613 51.5758 68.0071 53.2495C67.9653 54.9193 68.3546 56.5715 69.137 58.0445C69.8512 59.358 70.9173 60.4433 72.214 61.1769C73.5538 61.9227 75.0641 62.3027 76.5949 62.2794ZM102.984 71.0993V35.3997H114.388V39.5646C115.356 37.8146 116.837 36.4087 118.63 35.5397C120.424 34.6924 122.385 34.2618 124.367 34.2797C125.076 34.2744 125.785 34.3211 126.488 34.4197C127.113 34.513 127.728 34.618 128.33 34.7347L126.974 46.5296C126.157 46.2417 125.321 46.0136 124.471 45.8471C123.601 45.6731 122.716 45.5852 121.829 45.5846C119.879 45.5111 117.973 46.1797 116.492 47.4571C115.089 48.7054 114.388 50.5312 114.388 52.9345V71.0993H102.984ZM133.824 71.0993V35.3997H145.228V39.8096C146.052 38.6298 147.076 37.605 148.253 36.7822C149.392 35.9866 150.647 35.3727 151.973 34.9622C153.268 34.5579 154.615 34.3514 155.971 34.3497C158.335 34.2874 160.667 34.9002 162.699 36.1172C164.503 37.1917 165.875 38.8703 166.576 40.8596C167.888 38.6658 169.843 36.9355 172.173 35.9072C174.529 34.8658 177.076 34.3351 179.648 34.3497C183.079 34.3497 185.779 35.0089 187.75 36.3272C189.641 37.5491 191.106 39.3357 191.939 41.4371C192.766 43.5487 193.185 45.7998 193.173 48.0696V71.0993H181.769V51.3595C181.857 49.6157 181.3 47.901 180.205 46.5471C179.625 45.9264 178.916 45.4428 178.128 45.1311C177.341 44.8194 176.494 44.6874 175.65 44.7446C174.488 44.7228 173.339 44.9999 172.312 45.5496C171.377 46.0505 170.59 46.7935 170.035 47.7021C169.486 48.6143 169.203 49.6633 169.218 50.7295V71.0993H157.814V51.3595C157.902 49.6128 157.338 47.8961 156.232 46.5471C155.654 45.9293 154.947 45.4475 154.163 45.1359C153.379 44.8244 152.536 44.6908 151.695 44.7446C150.521 44.7201 149.36 44.9971 148.322 45.5496C147.386 46.0504 146.6 46.7935 146.045 47.7021C145.496 48.6143 145.213 49.6633 145.228 50.7295V71.0993H133.824ZM217.025 72.1493C213.876 72.1997 210.775 71.3828 208.054 69.7868C205.404 68.2032 203.238 65.9143 201.796 63.1719C200.213 60.112 199.423 56.6988 199.501 53.2495C199.466 50.6057 199.914 47.9779 200.822 45.4971C201.639 43.2785 202.893 41.2488 204.508 39.5296C206.078 37.8773 207.972 36.5721 210.071 35.6972C212.276 34.7846 214.64 34.3264 217.025 34.3497C219.974 34.2601 222.889 35.0059 225.438 36.5022C227.66 37.8263 229.403 39.8316 230.41 42.2246L228.846 44.7096V35.3997H238.65V71.0993H228.846V61.7894L230.41 64.2394C229.4 66.6353 227.659 68.6456 225.438 69.9793C222.893 71.4868 219.976 72.239 217.025 72.1493ZM218.972 62.2794C220.464 62.3014 221.934 61.9207 223.231 61.1769C224.502 60.4335 225.543 59.349 226.238 58.0445C227.009 56.5679 227.392 54.9172 227.351 53.2495C227.396 51.5758 227.013 49.9184 226.238 48.4371C225.539 47.1399 224.499 46.0621 223.231 45.3221C221.934 44.5783 220.464 44.1977 218.972 44.2196C217.485 44.1962 216.019 44.577 214.73 45.3221C213.469 46.0662 212.435 47.1434 211.74 48.4371C210.965 49.9184 210.581 51.5758 210.627 53.2495C210.585 54.9172 210.968 56.5679 211.74 58.0445C212.431 59.3455 213.466 60.4294 214.73 61.1769C216.019 61.922 217.485 62.3029 218.972 62.2794ZM261.424 72.0793C258.373 72.1127 255.334 71.7 252.401 70.8543C249.868 70.1318 247.483 68.9583 245.361 67.3894L248.907 59.5144C250.836 60.7535 252.916 61.7358 255.096 62.4369C257.114 63.1178 259.226 63.478 261.354 63.5044C262.773 63.5812 264.19 63.3236 265.492 62.7519C265.917 62.5687 266.278 62.2635 266.532 61.8744C266.785 61.4854 266.919 61.0297 266.917 60.5644C266.919 60.1569 266.795 59.759 266.561 59.4263C266.327 59.0937 265.996 58.843 265.613 58.7095C263.964 58.1044 262.257 57.6705 260.52 57.4145C255.745 56.5978 252.251 55.2503 250.037 53.372C247.824 51.4937 246.717 48.9212 246.717 45.6546C246.674 43.4577 247.345 41.3069 248.629 39.5296C249.994 37.7093 251.828 36.2994 253.931 35.4522C256.409 34.4422 259.064 33.948 261.737 33.9997C264.496 33.9833 267.242 34.3724 269.89 35.1547C272.257 35.8291 274.488 36.9192 276.479 38.3747L273.036 46.2496C272.017 45.4854 270.915 44.8397 269.751 44.3246C268.516 43.7663 267.229 43.3325 265.909 43.0296C264.643 42.7328 263.349 42.5802 262.05 42.5746C260.754 42.5229 259.464 42.7683 258.277 43.2921C257.868 43.4392 257.512 43.7062 257.255 44.0585C256.998 44.4109 256.851 44.8327 256.834 45.2696C256.827 45.6799 256.942 46.0831 257.165 46.4264C257.388 46.7698 257.709 47.0375 258.086 47.1946C259.7 47.8487 261.378 48.3297 263.093 48.6296C268.146 49.6562 271.727 51.0387 273.836 52.777C275.945 54.5153 277 56.9478 277 60.0744C277.049 62.3452 276.359 64.5698 275.036 66.4094C273.631 68.2801 271.742 69.7268 269.577 70.5918C266.986 71.6328 264.213 72.1387 261.424 72.0793Z" fill="black"/>
</g>
<path opacity="0.5" d="M149.688 10.86C150.664 11.068 151.448 11.556 152.04 12.324C152.632 13.076 152.928 13.94 152.928 14.916C152.928 16.324 152.432 17.444 151.44 18.276C150.464 19.092 149.096 19.5 147.336 19.5H139.488V2.652H147.072C148.784 2.652 150.12 3.044 151.08 3.828C152.056 4.612 152.544 5.676 152.544 7.02C152.544 8.012 152.28 8.836 151.752 9.492C151.24 10.148 150.552 10.604 149.688 10.86ZM143.592 9.468H146.28C146.952 9.468 147.464 9.324 147.816 9.036C148.184 8.732 148.368 8.292 148.368 7.716C148.368 7.14 148.184 6.7 147.816 6.396C147.464 6.092 146.952 5.94 146.28 5.94H143.592V9.468ZM146.616 16.188C147.304 16.188 147.832 16.036 148.2 15.732C148.584 15.412 148.776 14.956 148.776 14.364C148.776 13.772 148.576 13.308 148.176 12.972C147.792 12.636 147.256 12.468 146.568 12.468H143.592V16.188H146.616ZM168.988 6.108L160.588 25.86H156.172L159.244 19.044L153.796 6.108H158.38L161.476 14.484L164.548 6.108H168.988ZM186.046 16.524H179.758L178.75 19.5H174.454L180.55 2.652H185.302L191.398 19.5H187.054L186.046 16.524ZM184.99 13.356L182.902 7.188L180.838 13.356H184.99ZM200.718 16.02V19.5H198.63C197.142 19.5 195.982 19.14 195.15 18.42C194.318 17.684 193.902 16.492 193.902 14.844V9.516H192.27V6.108H193.902V2.844H198.006V6.108H200.694V9.516H198.006V14.892C198.006 15.292 198.102 15.58 198.294 15.756C198.486 15.932 198.806 16.02 199.254 16.02H200.718ZM209.1 19.692C207.788 19.692 206.604 19.412 205.548 18.852C204.508 18.292 203.684 17.492 203.076 16.452C202.484 15.412 202.188 14.196 202.188 12.804C202.188 11.428 202.492 10.22 203.1 9.18C203.708 8.124 204.54 7.316 205.596 6.756C206.652 6.196 207.836 5.916 209.148 5.916C210.46 5.916 211.644 6.196 212.7 6.756C213.756 7.316 214.588 8.124 215.196 9.18C215.804 10.22 216.108 11.428 216.108 12.804C216.108 14.18 215.796 15.396 215.172 16.452C214.564 17.492 213.724 18.292 212.652 18.852C211.596 19.412 210.412 19.692 209.1 19.692ZM209.1 16.14C209.884 16.14 210.548 15.852 211.092 15.276C211.652 14.7 211.932 13.876 211.932 12.804C211.932 11.732 211.66 10.908 211.116 10.332C210.588 9.756 209.932 9.468 209.148 9.468C208.348 9.468 207.684 9.756 207.156 10.332C206.628 10.892 206.364 11.716 206.364 12.804C206.364 13.876 206.62 14.7 207.132 15.276C207.66 15.852 208.316 16.14 209.1 16.14ZM235.373 5.964C237.037 5.964 238.357 6.468 239.333 7.476C240.325 8.484 240.821 9.884 240.821 11.676V19.5H236.741V12.228C236.741 11.364 236.509 10.7 236.045 10.236C235.597 9.756 234.973 9.516 234.173 9.516C233.373 9.516 232.741 9.756 232.277 10.236C231.829 10.7 231.605 11.364 231.605 12.228V19.5H227.525V12.228C227.525 11.364 227.293 10.7 226.829 10.236C226.381 9.756 225.757 9.516 224.957 9.516C224.157 9.516 223.525 9.756 223.061 10.236C222.613 10.7 222.389 11.364 222.389 12.228V19.5H218.285V6.108H222.389V7.788C222.805 7.228 223.349 6.788 224.021 6.468C224.693 6.132 225.453 5.964 226.301 5.964C227.309 5.964 228.205 6.18 228.989 6.612C229.789 7.044 230.413 7.66 230.861 8.46C231.325 7.724 231.957 7.124 232.757 6.66C233.557 6.196 234.429 5.964 235.373 5.964ZM245.755 4.716C245.035 4.716 244.443 4.508 243.979 4.092C243.531 3.66 243.307 3.132 243.307 2.508C243.307 1.868 243.531 1.34 243.979 0.923999C244.443 0.491999 245.035 0.275999 245.755 0.275999C246.459 0.275999 247.035 0.491999 247.483 0.923999C247.947 1.34 248.179 1.868 248.179 2.508C248.179 3.132 247.947 3.66 247.483 4.092C247.035 4.508 246.459 4.716 245.755 4.716ZM247.795 6.108V19.5H243.691V6.108H247.795ZM249.953 12.804C249.953 11.412 250.233 10.196 250.793 9.156C251.369 8.116 252.161 7.316 253.169 6.756C254.193 6.196 255.361 5.916 256.673 5.916C258.353 5.916 259.753 6.356 260.873 7.236C262.009 8.116 262.753 9.356 263.105 10.956H258.737C258.369 9.932 257.657 9.42 256.601 9.42C255.849 9.42 255.249 9.716 254.801 10.308C254.353 10.884 254.129 11.716 254.129 12.804C254.129 13.892 254.353 14.732 254.801 15.324C255.249 15.9 255.849 16.188 256.601 16.188C257.657 16.188 258.369 15.676 258.737 14.652H263.105C262.753 16.22 262.009 17.452 260.873 18.348C259.737 19.244 258.337 19.692 256.673 19.692C255.361 19.692 254.193 19.412 253.169 18.852C252.161 18.292 251.369 17.492 250.793 16.452C250.233 15.412 249.953 14.196 249.953 12.804ZM271.397 19.692C270.085 19.692 268.901 19.412 267.845 18.852C266.805 18.292 265.981 17.492 265.373 16.452C264.781 15.412 264.485 14.196 264.485 12.804C264.485 11.428 264.789 10.22 265.396 9.18C266.005 8.124 266.837 7.316 267.893 6.756C268.949 6.196 270.133 5.916 271.445 5.916C272.757 5.916 273.941 6.196 274.997 6.756C276.053 7.316 276.885 8.124 277.493 9.18C278.101 10.22 278.405 11.428 278.405 12.804C278.405 14.18 278.093 15.396 277.469 16.452C276.861 17.492 276.021 18.292 274.949 18.852C273.893 19.412 272.709 19.692 271.397 19.692ZM271.397 16.14C272.181 16.14 272.845 15.852 273.389 15.276C273.949 14.7 274.229 13.876 274.229 12.804C274.229 11.732 273.957 10.908 273.413 10.332C272.885 9.756 272.229 9.468 271.445 9.468C270.645 9.468 269.981 9.756 269.453 10.332C268.925 10.892 268.661 11.716 268.661 12.804C268.661 13.876 268.917 14.7 269.429 15.276C269.957 15.852 270.613 16.14 271.397 16.14Z" fill="black"/>
<defs>
<clipPath id="clip0_427_442">
<rect width="277" height="70" fill="white" transform="translate(0 2.5)"/>
</clipPath>
</defs>
</svg>
