<svg xmlns="http://www.w3.org/2000/svg" width="398.35" height="100.001" viewBox="0 0 398.35 100.001"><g transform="translate(-395 -363)"><path d="M-45.825,45a32,32,0,0,1,32-32V81a32,32,0,0,1-32,32Zm37,18a20,20,0,1,1,20,20A20,20,0,0,1-8.825,63ZM10.7,33A19.525,19.525,0,0,1-8.825,13.477c0-.157,0-.317.006-.476H31.17c0,.181.005.337.005.476A19.525,19.525,0,0,1,11.651,33Z" transform="translate(440.825 350)"/><path d="M31.15,1.5A29.091,29.091,0,0,1,16.4-2.175,27.016,27.016,0,0,1,6.375-12,26.1,26.1,0,0,1,2.75-25.5,25.843,25.843,0,0,1,4.825-35.725a26.988,26.988,0,0,1,5.875-8.65,27.884,27.884,0,0,1,9-5.95A29.386,29.386,0,0,1,31.15-52.5,29.09,29.09,0,0,1,45.9-48.825,26.824,26.824,0,0,1,55.9-39a26.241,26.241,0,0,1,3.6,13.5,26.115,26.115,0,0,1-2.05,10.225A26.371,26.371,0,0,1,51.6-6.65a28.436,28.436,0,0,1-9,5.95A29.094,29.094,0,0,1,31.15,1.5Zm0-14.1a12.625,12.625,0,0,0,6.3-1.575,11.257,11.257,0,0,0,4.4-4.475,13.964,13.964,0,0,0,1.6-6.85,14.109,14.109,0,0,0-1.575-6.875,11.132,11.132,0,0,0-4.375-4.45A12.726,12.726,0,0,0,31.15-38.4a12.726,12.726,0,0,0-6.35,1.575,11.3,11.3,0,0,0-4.4,4.45A13.929,13.929,0,0,0,18.8-25.5a13.79,13.79,0,0,0,1.625,6.85,11.426,11.426,0,0,0,4.425,4.475A12.625,12.625,0,0,0,31.15-12.6ZM69.1,0V-51H85.5v5.95a13.866,13.866,0,0,1,6.1-5.75,19.025,19.025,0,0,1,8.25-1.8,20.964,20.964,0,0,1,3.05.2q1.35.2,2.65.45L103.6-35.1a25.836,25.836,0,0,0-3.6-.975,19.582,19.582,0,0,0-3.8-.375,11.158,11.158,0,0,0-7.675,2.675Q85.5-31.1,85.5-25.95V0Zm44.35,0V-51h16.4v6.3a17.572,17.572,0,0,1,4.35-4.325,19.4,19.4,0,0,1,5.35-2.6,19.492,19.492,0,0,1,5.75-.875,18,18,0,0,1,9.675,2.525A12.861,12.861,0,0,1,160.55-43.2a17.686,17.686,0,0,1,8.05-7.075A26.366,26.366,0,0,1,179.35-52.5q7.4,0,11.65,2.825a15.5,15.5,0,0,1,6.025,7.3A25.462,25.462,0,0,1,198.8-32.9V0H182.4V-28.2a10.077,10.077,0,0,0-2.25-6.875,8.231,8.231,0,0,0-6.55-2.575,9.83,9.83,0,0,0-4.8,1.15,8.57,8.57,0,0,0-3.275,3.075A8.136,8.136,0,0,0,164.35-29.1V0h-16.4V-28.2a10.006,10.006,0,0,0-2.275-6.875,8.246,8.246,0,0,0-6.525-2.575,9.935,9.935,0,0,0-4.85,1.15,8.569,8.569,0,0,0-3.275,3.075A8.136,8.136,0,0,0,129.85-29.1V0ZM233.1,1.5a24.835,24.835,0,0,1-12.9-3.375,24.1,24.1,0,0,1-9-9.45A29.243,29.243,0,0,1,207.9-25.5a30.826,30.826,0,0,1,1.9-11.075,25.108,25.108,0,0,1,5.3-8.525,23.528,23.528,0,0,1,8-5.475,25.644,25.644,0,0,1,10-1.925,22.664,22.664,0,0,1,12.1,3.075,17.386,17.386,0,0,1,7.15,8.175L250.1-37.7V-51h14.1V0H250.1V-13.3l2.25,3.5a17.521,17.521,0,0,1-7.15,8.2A22.522,22.522,0,0,1,233.1,1.5Zm2.8-14.1a12.016,12.016,0,0,0,6.125-1.575,11.41,11.41,0,0,0,4.325-4.475,13.965,13.965,0,0,0,1.6-6.85,13.929,13.929,0,0,0-1.6-6.875,11.454,11.454,0,0,0-4.325-4.45A12.016,12.016,0,0,0,235.9-38.4a11.881,11.881,0,0,0-6.1,1.575,11.51,11.51,0,0,0-4.3,4.45,13.93,13.93,0,0,0-1.6,6.875,13.965,13.965,0,0,0,1.6,6.85,11.465,11.465,0,0,0,4.3,4.475A11.88,11.88,0,0,0,235.9-12.6Zm61.05,14A45.33,45.33,0,0,1,283.975-.35,31.708,31.708,0,0,1,273.85-5.3l5.1-11.25a38.107,38.107,0,0,0,8.9,4.175,29.468,29.468,0,0,0,9,1.525,13.121,13.121,0,0,0,5.95-1.075,3.382,3.382,0,0,0,2.05-3.125,2.789,2.789,0,0,0-1.875-2.65,37.1,37.1,0,0,0-7.325-1.85q-10.3-1.75-15.075-5.775T275.8-36.35a14.4,14.4,0,0,1,2.75-8.75,17.871,17.871,0,0,1,7.625-5.825A28.45,28.45,0,0,1,297.4-53a40.771,40.771,0,0,1,11.725,1.65,30.048,30.048,0,0,1,9.475,4.6L313.65-35.5a24.275,24.275,0,0,0-4.725-2.75A29.484,29.484,0,0,0,303.4-40.1a24.923,24.923,0,0,0-5.55-.65,12.3,12.3,0,0,0-5.425,1.025A3.131,3.131,0,0,0,290.35-36.9a2.917,2.917,0,0,0,1.8,2.75,35.6,35.6,0,0,0,7.2,2.05q10.9,2.2,15.45,5.925t4.55,10.425a14.882,14.882,0,0,1-2.825,9.05,18.305,18.305,0,0,1-7.85,5.975A29.926,29.926,0,0,1,296.95,1.4Z" transform="translate(474 461)"/></g></svg>